<svg xmlns="http://www.w3.org/2000/svg" xmlns:xlink="http://www.w3.org/1999/xlink" width="32" height="32" viewBox="0 0 32 32">
  <defs>
    <clipPath id="clip-path">
      <rect id="矩形_26" data-name="矩形 26" width="32" height="32" fill="none"/>
    </clipPath>
  </defs>
  <g id="组_22" data-name="组 22" transform="translate(-152 -808)">
    <g id="组_21" data-name="组 21" transform="translate(152 808)">
      <g id="组_20" data-name="组 20" transform="translate(0)" clip-path="url(#clip-path)">
        <path id="路径_13" data-name="路径 13" d="M159.074,826.5a2.343,2.343,0,0,0-.9,1.31,2.743,2.743,0,0,0,.7,2.491,4.8,4.8,0,0,0,2.862,1.214,7.719,7.719,0,0,0,4.6-1.581,9.675,9.675,0,0,0,2.19-2.172,13.669,13.669,0,0,0-6.635-1.916,6.466,6.466,0,0,0-2.83.655Zm23.5,4.232a15.975,15.975,0,1,0-1.759,3.114c-2.75-1.357-7.274-3.609-10.072-4.967a12.3,12.3,0,0,1-5.516,3.689,7.891,7.891,0,0,1-3.965.3,5.062,5.062,0,0,1-3.677-2.667.225.225,0,0,1,.032.1,2.529,2.529,0,0,1-.24-.607,3.453,3.453,0,0,1-.112-.559,1.665,1.665,0,0,1,0-.4,3.01,3.01,0,0,1,.048-.751,3.718,3.718,0,0,1,1.1-2.044,6.352,6.352,0,0,1,4.652-1.565,24.9,24.9,0,0,1,6.619,1.517A22.41,22.41,0,0,0,171,822.111h-9.593v-1.038h4.924V819h-5.947v-1.054h5.947v-2.076c0-.287.064-.511.512-.511h2.334v2.587h6.475v1.038h-6.475v2.076h5.18a20.676,20.676,0,0,1-2.142,5.749c3.6,1.278,8.681,3.258,10.36,3.929Zm0,0" transform="translate(-151.885 -808.5)" fill="#06b4fd"/>
      </g>
    </g>
  </g>
</svg>
