<svg xmlns="http://www.w3.org/2000/svg" xmlns:xlink="http://www.w3.org/1999/xlink" width="153.959" height="49.365" viewBox="0 0 153.959 49.365">
  <defs>
    <filter id="路径_243" x="0" y="0" width="153.959" height="49.365" filterUnits="userSpaceOnUse">
      <feOffset dy="3" input="SourceAlpha"/>
      <feGaussianBlur stdDeviation="3" result="blur"/>
      <feFlood flood-color="#ffb796"/>
      <feComposite operator="in" in2="blur"/>
      <feComposite in="SourceGraphic"/>
    </filter>
  </defs>
  <g transform="matrix(1, 0, 0, 1, 0, 0)" filter="url(#路径_243)">
    <g id="路径_243-2" data-name="路径 243" transform="translate(-324 -363)" fill="#f62" stroke-miterlimit="10" opacity="0.907">
      <path d="M 468.0429382324219 400.1148071289062 L 341.973876953125 400.1148071289062 C 339.0670471191406 400.1148071289062 336.862548828125 399.3841857910156 335.4216003417969 397.9432678222656 C 333.9806518554688 396.5023193359375 333.2500305175781 394.2978210449219 333.2500305175781 391.3909606933594 L 333.2500305175781 377.9738159179688 C 333.2500305175781 375.0669860839844 333.9806518554688 372.8624877929688 335.4216003417969 371.4215393066406 C 336.862548828125 369.9805908203125 339.0670471191406 369.2499694824219 341.973876953125 369.2499694824219 L 450.2991943359375 369.2499694824219 C 453.2059936523438 369.2499694824219 455.4104919433594 369.9805908203125 456.8514404296875 371.4215393066406 C 458.2923583984375 372.8624877929688 459.0229797363281 375.0669860839844 459.0229797363281 377.9738159179688 L 459.0229797363281 386.9887390136719 C 459.0229797363281 389.2816467285156 459.2147521972656 390.741455078125 459.6849060058594 392.0274353027344 C 460.1907958984375 393.4111022949219 461.0340576171875 394.6288757324219 462.5045776367188 396.0994262695312 C 464.0043029785156 397.5991516113281 466.7041015625 399.3072814941406 468.0429382324219 400.1148071289062 Z" stroke="none"/>
      <path d="M 467.1584777832031 399.8648071289062 C 465.7127380371094 398.9609069824219 463.5984802246094 397.546875 462.3278198242188 396.2761840820312 C 460.8298950195312 394.7782897949219 459.9692687988281 393.5332946777344 459.4501037597656 392.1132507324219 C 458.9691772460938 390.7977600097656 458.7729797363281 389.3130798339844 458.7729797363281 386.9887390136719 L 458.7729797363281 377.9738159179688 C 458.7729797363281 372.2717895507812 456.0011901855469 369.4999694824219 450.2991943359375 369.4999694824219 L 341.973876953125 369.4999694824219 C 336.2718505859375 369.4999694824219 333.5000305175781 372.2717895507812 333.5000305175781 377.9738159179688 L 333.5000305175781 391.3909606933594 C 333.5000305175781 397.0929870605469 336.2718505859375 399.8648071289062 341.973876953125 399.8648071289062 L 467.1584777832031 399.8648071289062 M 468.958740234375 400.3648071289062 L 341.973876953125 400.3648071289062 C 335.9948425292969 400.3648071289062 333.0000305175781 397.3700256347656 333.0000305175781 391.3909606933594 L 333.0000305175781 377.9738159179688 C 333.0000305175781 371.9947814941406 335.9948425292969 368.9999694824219 341.973876953125 368.9999694824219 L 450.2991943359375 368.9999694824219 C 456.2781677246094 368.9999694824219 459.2729797363281 371.9947814941406 459.2729797363281 377.9738159179688 L 459.2729797363281 386.9887390136719 C 459.2729797363281 391.1043395996094 459.8614501953125 393.1027526855469 462.6813659667969 395.9226379394531 C 464.6855163574219 397.9268188476562 468.958740234375 400.3648071289062 468.958740234375 400.3648071289062 Z" stroke="none" fill="#de3333"/>
    </g>
  </g>
</svg>
