<svg xmlns="http://www.w3.org/2000/svg" width="24" height="24" viewBox="0 0 24 24">
  <g id="组_176" data-name="组 176" transform="translate(-610.305 -440.392)">
    <g id="椭圆_4" data-name="椭圆 4" transform="translate(610.305 440.392)">
      <ellipse id="椭圆_43" data-name="椭圆 43" cx="12" cy="12" rx="12" ry="12" fill="none"/>
      <path id="路径_217" data-name="路径 217" d="M622.3,464.392a12,12,0,1,1,12-12A12.014,12.014,0,0,1,622.3,464.392Zm0-22.006a10.006,10.006,0,1,0,10.006,10.006A10.017,10.017,0,0,0,622.3,442.386Z" transform="translate(-610.305 -440.392)" fill="#4988fe"/>
    </g>
    <g id="组_174" data-name="组 174" transform="translate(615.039 449.917)">
      <path id="路径_218" data-name="路径 218" d="M618.3,449.955l2.182,5.709h-1l-.52-1.432h-2.391l-.519,1.432h-1l2.182-5.709Zm.384,3.51-.9-2.5h-.032l-.9,2.5Z" transform="translate(-615.057 -449.955)" fill="#4988fe"/>
    </g>
    <g id="组_175" data-name="组 175" transform="translate(622.268 440.392)">
      <path id="路径_219" data-name="路径 219" d="M627.935,453.121h-1.576V454.9h1.551a1.712,1.712,0,0,0,.832-.167.726.726,0,0,0,.384-.688.839.839,0,0,0-.28-.7A1.52,1.52,0,0,0,627.935,453.121Z" transform="translate(-622.341 -440.433)" fill="#4988fe"/>
      <path id="路径_220" data-name="路径 220" d="M628.638,452.154a.807.807,0,0,0,.248-.648.694.694,0,0,0-.248-.59,1.406,1.406,0,0,0-.831-.193h-1.448v1.631h1.431A1.408,1.408,0,0,0,628.638,452.154Z" transform="translate(-622.341 -440.425)" fill="#4988fe"/>
      <path id="路径_221" data-name="路径 221" d="M630.852,443.906a11.975,11.975,0,0,0-8.511-3.514v24h0a11.992,11.992,0,0,0,8.51-20.484Zm-1.382,11.377a2.565,2.565,0,0,1-1.424.335h-2.622v-5.692h2.614a2.013,2.013,0,0,1,1.336.407,1.3,1.3,0,0,1,.447,1.029,1.251,1.251,0,0,1-.887,1.283,1.384,1.384,0,0,1,.847.456,1.4,1.4,0,0,1,.281.915A1.436,1.436,0,0,1,629.47,455.283Z" transform="translate(-622.341 -440.392)" fill="#4988fe"/>
    </g>
  </g>
</svg>
