<svg xmlns="http://www.w3.org/2000/svg" xmlns:xlink="http://www.w3.org/1999/xlink" width="309.245" height="109.226" viewBox="0 0 309.245 109.226">
  <defs>
    <filter id="路径_178" x="0" y="0" width="309.245" height="109.226" filterUnits="userSpaceOnUse">
      <feOffset dy="3" input="SourceAlpha"/>
      <feGaussianBlur stdDeviation="3" result="blur"/>
      <feFlood flood-color="#ffb796"/>
      <feComposite operator="in" in2="blur"/>
      <feComposite in="SourceGraphic"/>
    </filter>
  </defs>
  <g transform="matrix(1, 0, 0, 1, 0, 0)" filter="url(#路径_178)">
    <g id="路径_178-2" data-name="路径 178" transform="translate(226.5 283.73) rotate(-90)" fill="#f62" stroke-miterlimit="10" opacity="0.925">
      <path d="M 276.7835083007812 73.49513244628906 L 275.8408508300781 73.49513244628906 L 195.973876953125 73.49513244628906 C 189.8533782958984 73.49513244628906 186.7500152587891 70.39180755615234 186.7500152587891 64.27134704589844 L 186.7500152587891 -208.0261840820312 C 186.7500152587891 -214.1466522216797 189.8533782958984 -217.2500152587891 195.973876953125 -217.2500152587891 L 257.1812744140625 -217.2500152587891 C 263.3016967773438 -217.2500152587891 266.405029296875 -214.1466522216797 266.405029296875 -208.0261840820312 L 266.405029296875 59.8691291809082 C 266.405029296875 62.09912872314453 266.5879821777344 63.5091667175293 267.0365600585938 64.73609161376953 C 267.5158386230469 66.04701995849609 268.3244323730469 67.21041870117188 269.7402648925781 68.62619781494141 C 271.6980285644531 70.58402252197266 275.9222717285156 73.00377655029297 275.9647216796875 73.02798461914062 L 276.7835083007812 73.49513244628906 Z" stroke="none"/>
      <path d="M 275.8408203125 73.24513244628906 C 275.8408203125 73.24513244628906 271.567626953125 70.80717468261719 269.5634765625 68.802978515625 C 266.7435302734375 65.98309326171875 266.155029296875 63.98471069335938 266.155029296875 59.86913681030273 L 266.155029296875 -208.0261688232422 C 266.155029296875 -214.0052032470703 263.1603088378906 -216.9999847412109 257.1813049316406 -216.9999847412109 L 195.973876953125 -216.9999847412109 C 189.994873046875 -216.9999847412109 186.9999847412109 -214.0052032470703 186.9999847412109 -208.0261688232422 L 186.9999847412109 64.27132415771484 C 186.9999847412109 70.2503662109375 189.994873046875 73.24513244628906 195.973876953125 73.24513244628906 L 275.8408203125 73.24513244628906 M 277.7262268066406 73.74513244628906 L 275.8408203125 73.74513244628906 L 195.973876953125 73.74513244628906 C 192.8609161376953 73.74513244628906 190.4779815673828 72.94063568115234 188.8912506103516 71.35394287109375 C 187.3045196533203 69.7672119140625 186.4999847412109 67.38429260253906 186.4999847412109 64.27132415771484 L 186.4999847412109 -208.0261688232422 C 186.4999847412109 -211.1391296386719 187.3045196533203 -213.5220642089844 188.8912506103516 -215.1087951660156 C 190.4779815673828 -216.6954803466797 192.8609161376953 -217.4999847412109 195.973876953125 -217.4999847412109 L 257.1813049316406 -217.4999847412109 C 260.2942504882812 -217.4999847412109 262.6771850585938 -216.6954345703125 264.2638244628906 -215.1087493896484 C 265.8505249023438 -213.5220947265625 266.655029296875 -211.1391296386719 266.655029296875 -208.0261688232422 L 266.655029296875 59.86913681030273 C 266.655029296875 63.79402160644531 267.1478271484375 65.68032836914062 269.9170227050781 68.44940185546875 C 271.851318359375 70.3837890625 276.0464477539062 72.78678894042969 276.0885925292969 72.81082916259766 L 277.7262268066406 73.74513244628906 Z" stroke="none" fill="#de3333"/>
    </g>
  </g>
</svg>
