<svg xmlns="http://www.w3.org/2000/svg" xmlns:xlink="http://www.w3.org/1999/xlink" width="24.071" height="24.071" viewBox="0 0 24.071 24.071">
  <defs>
    <clipPath id="clip-path">
      <rect width="24.071" height="24.071" fill="none"/>
    </clipPath>
  </defs>
  <g id="组件_29_2" data-name="组件 29 – 2" clip-path="url(#clip-path)">
    <g id="组_253" data-name="组 253" transform="translate(-44 -735)">
      <g id="椭圆_4" data-name="椭圆 4" transform="translate(44 735)" fill="none" stroke="#4988fe" stroke-width="2">
        <ellipse cx="12.036" cy="12.036" rx="12.036" ry="12.036" stroke="none"/>
        <ellipse cx="12.036" cy="12.036" rx="11.036" ry="11.036" fill="none"/>
      </g>
      <path id="路径_309" data-name="路径 309" d="M907.96,202.885a.659.659,0,0,0,0-.1v0c0-.021-.005-.042-.01-.062l0-.013c0-.017-.008-.034-.013-.051l-.006-.02c0-.014-.01-.028-.015-.042l-.01-.024-.017-.035-.015-.028-.017-.029-.021-.031-.016-.022-.03-.036-.013-.014c-.014-.014-.027-.028-.042-.041l0,0-.007-.006-.01-.009-4.059-3.545-.01-.008-.042-.033-.013-.008-.046-.029-.014-.008-.046-.024-.018-.008-.043-.017-.024-.007-.04-.011-.028-.006-.037-.006-.031,0-.034,0h-.066l-.034,0-.032,0-.035.006-.031.007-.036.01-.029.009-.036.014-.026.011-.037.018-.024.013-.037.024-.022.015a.427.427,0,0,0-.034.027l-.015.012-4.05,3.538a.7.7,0,0,0-.195.241c-.01.02-.018.04-.026.061v0c-.007.02-.014.04-.02.061a.007.007,0,0,1,0,0c-.005.02-.01.04-.013.06v.008c0,.019-.005.038-.007.058v.012c0,.013,0,.026,0,.039v5.418a.7.7,0,0,0,.693.7h8.155a.7.7,0,0,0,.7-.7v-5.388Z" transform="translate(-847.175 543.573)" fill="none" stroke="#4988fe" stroke-width="2"/>
      <rect id="矩形_384" data-name="矩形 384" width="2" height="4" rx="1" transform="translate(55 749)" fill="#4988fe"/>
    </g>
  </g>
</svg>
