<svg xmlns="http://www.w3.org/2000/svg" width="21.517" height="20.548" viewBox="0 0 21.517 20.548">
  <g id="组_195" data-name="组 195" transform="translate(-24 -294)">
    <path id="路径_234" data-name="路径 234" d="M162.639,827.574a.863.863,0,0,0-.774.481l-2.857,5.789-6.389.928a.863.863,0,0,0-.478,1.472l4.623,4.506-1.091,6.363a.863.863,0,0,0,1.252.91l5.714-3,5.714,3a.863.863,0,0,0,1.252-.91l-1.091-6.363,4.623-4.506a.863.863,0,0,0-.478-1.472l-6.388-.928-2.857-5.789a.863.863,0,0,0-.774-.481Zm0,0" transform="translate(-127.88 -533.574)" fill="#ff7f12"/>
    <path id="路径_223" data-name="路径 223" d="M10.144,182.759a.628.628,0,0,1-.446-.182l-2.011-1.958a.631.631,0,1,1,.892-.892l1.565,1.518,3.321-3.784a.631.631,0,1,1,.892.892l-3.767,4.224a.628.628,0,0,1-.446.182Zm0,0" transform="translate(24.001 124.943)" fill="#fff"/>
  </g>
</svg>
