<svg xmlns="http://www.w3.org/2000/svg" width="22.638" height="15.18" viewBox="0 0 22.638 15.18">
  <g id="组_193" data-name="组 193" transform="translate(-553.44 -371.084)">
    <path id="路径_232" data-name="路径 232" d="M559.6,386h-4.07l-2.09-14.652h3.63l1.078,10.758,4.356-10.758h3.938Z" fill="#4988fe"/>
    <path id="路径_233" data-name="路径 233" d="M575.4,381.732a4.134,4.134,0,0,1-1.541,3.3,5.159,5.159,0,0,1-1.737.913,7.386,7.386,0,0,1-2.222.319,11.71,11.71,0,0,1-2.31-.253,8.837,8.837,0,0,1-2.222-.737l.748-2.706a9.59,9.59,0,0,0,1.859.682,7.42,7.42,0,0,0,1.815.242,4.094,4.094,0,0,0,.736-.066,2.132,2.132,0,0,0,.661-.231,1.343,1.343,0,0,0,.473-.429,1.167,1.167,0,0,0,.176-.66,1.438,1.438,0,0,0-.44-1.012,9.3,9.3,0,0,0-1.5-1.166,14.852,14.852,0,0,1-1.232-.913,6.149,6.149,0,0,1-.99-1.023,4.562,4.562,0,0,1-.65-1.177,4.037,4.037,0,0,1-.23-1.4,4.669,4.669,0,0,1,.352-1.87,3.524,3.524,0,0,1,1.012-1.353,4.655,4.655,0,0,1,1.584-.825,6.994,6.994,0,0,1,2.068-.286,8.319,8.319,0,0,1,4.268,1.144l-.726,2.618a8.45,8.45,0,0,0-1.606-.7,5.463,5.463,0,0,0-1.694-.286,2.938,2.938,0,0,0-1.243.231.927.927,0,0,0-.5.935,1.212,1.212,0,0,0,.364.847,11,11,0,0,0,1.264,1.067q.662.506,1.288,1a7.29,7.29,0,0,1,1.1,1.067,5.32,5.32,0,0,1,.77,1.243A3.627,3.627,0,0,1,575.4,381.732Z" fill="#4988fe"/>
  </g>
</svg>
