<svg xmlns="http://www.w3.org/2000/svg" xmlns:xlink="http://www.w3.org/1999/xlink" width="68" height="68" viewBox="0 0 68 68">
  <defs>
    <filter id="椭圆_73" x="0" y="0" width="68" height="68" filterUnits="userSpaceOnUse">
      <feOffset input="SourceAlpha"/>
      <feGaussianBlur stdDeviation="3" result="blur"/>
      <feFlood flood-color="#aecdf7"/>
      <feComposite operator="in" in2="blur"/>
      <feComposite in="SourceGraphic"/>
    </filter>
  </defs>
  <g id="已保存" transform="translate(-911 -96)">
    <g transform="matrix(1, 0, 0, 1, 911, 96)" filter="url(#椭圆_73)">
      <circle id="椭圆_73-2" data-name="椭圆 73" cx="25" cy="25" r="25" transform="translate(9 9)" fill="#fff"/>
    </g>
    <path id="减去_20" data-name="减去 20" d="M5,20H3.083a1.621,1.621,0,0,1-1.138-.472,1.6,1.6,0,0,1-.47-1.139V9.753l-.139.132A.8.8,0,0,1,.259,8.691L8.976.416a1.6,1.6,0,0,1,2.156,0l8.6,8.274A.814.814,0,0,1,20,9.246a.8.8,0,0,1-.206.581.777.777,0,0,1-.585.262.866.866,0,0,1-.577-.23V18.39A1.607,1.607,0,0,1,17.025,20H15V18.17H5V20Zm1.41-8.749a.6.6,0,0,0-.532.318.463.463,0,0,0,.128.56l3.573,3.087a.65.65,0,0,0,.415.15H10a.649.649,0,0,0,.422-.15l3.572-3.087a.466.466,0,0,0,.129-.56.6.6,0,0,0-.532-.318H11.032a1.365,1.365,0,0,0,.008-.147V8.055A.982.982,0,0,0,9.993,7.035.974.974,0,0,0,8.957,8.055v3.05c0,.048,0,.093.008.147H6.409Z" transform="translate(935 112.191)" fill="#ff7f12" stroke="rgba(0,0,0,0)" stroke-width="1"/>
    <g id="组_310" data-name="组 310" transform="translate(902.885 128.866)">
      <path id="路径_403" data-name="路径 403" d="M29.574,11.951V14.62a.477.477,0,0,0,.54.539h4.967a.679.679,0,0,0,.45-.179,4.144,4.144,0,0,0,.29-1.749l1.019.32a5.328,5.328,0,0,1-.5,2.248,1.5,1.5,0,0,1-.969.36H29.814c-.859,0-1.279-.45-1.279-1.349V9.633h1.039v1.319h5.107V8.673H28.115v-1h7.626v4.277Z" fill="#ff7f12"/>
      <path id="路径_404" data-name="路径 404" d="M40.684,7.6a10.783,10.783,0,0,1-.87,2.039V16.5h-1.06V11.262c-.269.34-.559.68-.859,1l-.34-1.119a10.963,10.963,0,0,0,2.139-4.008Zm5.237.03v3.378H43.992v.79H46.75v1.019H44.9A7.3,7.3,0,0,0,46.95,15.08l-.679.909a10.237,10.237,0,0,1-2.209-3.168h-.07v3.668h-1.04V12.821h-.08A8.657,8.657,0,0,1,40.614,16l-.59-.939a6.931,6.931,0,0,0,2.019-2.239H40.294V11.8h2.658v-.79H41.043V7.634Zm-1.02,1H42.063v1.38H44.9Z" fill="#ff7f12"/>
      <path id="路径_405" data-name="路径 405" d="M50.653,8.094c.111-.311.21-.62.3-.94l1.06.13c-.08.28-.159.55-.25.81H56.71V9.113H51.373A12.471,12.471,0,0,1,50,11.462v5.027H48.975V12.671c-.23.24-.46.46-.7.68l-.65-.84a10.636,10.636,0,0,0,2.6-3.4H48.056V8.094Zm2.759,4.727v-.769a11.085,11.085,0,0,0,1.489-1.01H51.384v-.96H56.2v.96a12.727,12.727,0,0,1-1.749,1.429v.35h2.389V13.83H54.452v1.52a.965.965,0,0,1-1.08,1.1H52.143l-.27-.979c.34.019.7.029,1.09.029.3,0,.449-.159.449-.47v-1.2H50.624V12.821Z" fill="#ff7f12"/>
    </g>
  </g>
</svg>
