<svg xmlns="http://www.w3.org/2000/svg" width="17.001" height="16.261" viewBox="0 0 17.001 16.261">
  <path id="路径_207" data-name="路径 207" d="M159.871,827.574a.641.641,0,0,0-.575.357l-2.122,4.3-4.745.689a.641.641,0,0,0-.355,1.093l3.434,3.347-.811,4.726a.641.641,0,0,0,.93.676l4.244-2.231,4.244,2.231a.641.641,0,0,0,.93-.676l-.81-4.726,3.433-3.347a.641.641,0,0,0-.355-1.093l-4.745-.689-2.122-4.3a.641.641,0,0,0-.575-.357Zm0,0" transform="translate(-151.37 -827.074)" fill="none" stroke="#707070" stroke-width="1"/>
</svg>
