<svg xmlns="http://www.w3.org/2000/svg" width="17.024" height="16.283" viewBox="0 0 17.024 16.283">
  <g id="组_189" data-name="组 189" transform="translate(-55.486 -173.5)">
    <path id="路径_231" data-name="路径 231" d="M159.882,827.574a.641.641,0,0,0-.576.358l-2.125,4.305-4.752.69a.642.642,0,0,0-.356,1.095l3.438,3.351-.812,4.732a.642.642,0,0,0,.931.677l4.25-2.234,4.25,2.234a.642.642,0,0,0,.931-.677l-.812-4.732,3.438-3.351a.642.642,0,0,0-.356-1.095l-4.751-.69-2.125-4.306a.642.642,0,0,0-.575-.358Zm0,0" transform="translate(-95.884 -653.574)" fill="#ff7f12" stroke="#ff7f12" stroke-width="1"/>
    <path id="路径_231-2" data-name="路径 231" d="M778.188,502.457a.553.553,0,0,1-.394-.161l-1.631-1.714a.557.557,0,0,1,.753-.821c.012.011.023.022.034.034l1.238,1.328,2.688-2.958a.557.557,0,0,1,.787.787l-3.081,3.346a.553.553,0,0,1-.394.161Z" transform="translate(-714.982 -318.018)" fill="#fff"/>
  </g>
</svg>
