<svg xmlns="http://www.w3.org/2000/svg" width="20.777" height="20.777" viewBox="0 0 20.777 20.777">
  <g id="组_137" data-name="组 137" transform="translate(-322 -685)">
    <path id="减去_7" data-name="减去 7" d="M-3988.692,2786.126h0l-2.637-2.636,3.374-3.373,1.69,1.69a1.343,1.343,0,0,1,0,1.893l-2.425,2.426Zm-8.143-8.142h0l-1.975-1.975a.663.663,0,0,0,.372-.188l1.73-1.731a.667.667,0,0,0,.2-.475.664.664,0,0,0-.2-.472.663.663,0,0,0-.473-.2.663.663,0,0,0-.473.2l-1.731,1.731a.665.665,0,0,0-.188.372l-1.426-1.426,2.427-2.426a1.329,1.329,0,0,1,.947-.392,1.327,1.327,0,0,1,.946.392l3.219,3.218-3.373,3.372Z" transform="translate(4325.37 -2082.651)" fill="#4988fe" stroke="rgba(0,0,0,0)" stroke-width="1"/>
    <path id="路径_159" data-name="路径 159" d="M309.672,403.619l5.3-1.483.548-.549-3.729-3.729-.554.553Zm2.737-6.382,3.729,3.729,9.953-10.254-3.729-3.729ZM327.772,386.8l-1.5-1.5c-.858-.858-1.37-.858-2.228,0l-1.06,1.062,3.729,3.727,1.06-1.062c.858-.858.858-1.37,0-2.228Z" transform="translate(14.142 302.067)" fill="#4988fe"/>
    <g id="组_132" data-name="组 132" transform="translate(322 685)">
      <path id="路径_161" data-name="路径 161" d="M323.015,391.084l-1.421,1.42,2.109,2.107a1.677,1.677,0,0,1,0,2.367l-2.13,2.13-3.292-3.292-1.419,1.42,4,4a1.005,1.005,0,0,0,1.419,0l2.84-2.841a3.686,3.686,0,0,0,0-5.207Z" transform="translate(-305.422 -380.755)" fill="#4988fe"/>
      <path id="路径_162" data-name="路径 162" d="M315.673,392.926,310.742,388l2.13-2.13a1.71,1.71,0,0,1,2.366,0l3.747,3.747,1.421-1.421-3.747-3.747a3.686,3.686,0,0,0-5.207,0l-2.84,2.841a1,1,0,0,0,0,1.419l5.641,5.641Z" transform="translate(-308.317 -383.369)" fill="#4988fe"/>
    </g>
  </g>
</svg>
