<svg xmlns="http://www.w3.org/2000/svg" width="15.35" height="15.243" viewBox="0 0 15.35 15.243">
  <path id="联合_1" data-name="联合 1" d="M1.292,2176.242A1.3,1.3,0,0,1,0,2174.95v-9.84H.023a.552.552,0,0,1,.162-.256l3.211-2.731a.506.506,0,0,1,.293-.116l.015-.008H9.933a1.294,1.294,0,0,1,1.292,1.292v3.11H10.22v-3.1a.29.29,0,0,0-.286-.286H4.525v3.582H2.2v-1.005H3.52v-2.252l-2.507,2.135v9.47a.29.29,0,0,0,.286.286H9.933a.29.29,0,0,0,.286-.286v-.759c.162.17.355.34.5.333a.781.781,0,0,0,.495-.232v.665a1.3,1.3,0,0,1-1.292,1.292Zm9.105-2.291L7.357,2170.9a.494.494,0,0,1-.085-.518.374.374,0,0,1,.372-.239H9.059v-2.932a.544.544,0,0,1,.541-.549h2.476a.551.551,0,0,1,.549.549v2.932h1.354a.344.344,0,0,1,.31.232.5.5,0,0,1-.062.525l-3.056,3.056a.54.54,0,0,1-.773,0Zm.386-.788,2.19-2.2H11.79v-3.473h-1.9v3.473H8.6Zm-8.153.162a.5.5,0,1,1,0-1.005H8.324a.5.5,0,1,1,0,1.005Zm0-1.934a.5.5,0,1,1,0-1.005H6.94a.686.686,0,0,0-.055.448,1.871,1.871,0,0,0,.449.557Zm0-1.934a.5.5,0,1,1,0-1.005h5.7a.5.5,0,0,1,.495.5.5.5,0,0,1-.5.5Z" transform="translate(0.5 -2161.5)" fill="#4988fe" stroke="rgba(0,0,0,0)" stroke-width="1"/>
</svg>
