<svg xmlns="http://www.w3.org/2000/svg" width="21.077" height="21.001" viewBox="0 0 21.077 21.001">
  <path id="减去_6" data-name="减去 6" d="M5,20H3.083a1.621,1.621,0,0,1-1.138-.472,1.6,1.6,0,0,1-.47-1.139V9.753l-.139.132A.8.8,0,0,1,.259,8.691L8.976.416a1.6,1.6,0,0,1,2.156,0l8.6,8.274A.814.814,0,0,1,20,9.246a.8.8,0,0,1-.206.581.777.777,0,0,1-.585.262.866.866,0,0,1-.577-.23V18.39A1.607,1.607,0,0,1,17.025,20H15V18.17H5V20Zm1.41-8.749a.6.6,0,0,0-.532.318.463.463,0,0,0,.128.56l3.573,3.087a.65.65,0,0,0,.415.15H10a.649.649,0,0,0,.422-.15l3.572-3.087a.466.466,0,0,0,.129-.56.6.6,0,0,0-.532-.318H11.032a1.365,1.365,0,0,0,.008-.147V8.055A.982.982,0,0,0,9.993,7.035.974.974,0,0,0,8.957,8.055v3.05c0,.048,0,.093.008.147H6.409Z" transform="translate(0.577 0.5)" fill="#4988fe" stroke="rgba(0,0,0,0)" stroke-width="1"/>
</svg>
