<svg xmlns="http://www.w3.org/2000/svg" width="18" height="18" viewBox="0 0 18 18">
  <g id="组_187" data-name="组 187" transform="translate(-153 -121)">
    <path id="路径_230" data-name="路径 230" d="M588.678,425.679a9,9,0,1,0,9,9A9,9,0,0,0,588.678,425.679Zm-2.4,13h-2.219l-1.141-7.992h1.98l.588,5.868,2.376-5.868h2.148Zm6.042-5.527a5.8,5.8,0,0,0,.69.582q.36.278.7.546a4,4,0,0,1,.6.582,2.93,2.93,0,0,1,.42.679,1.979,1.979,0,0,1,.163.81,2.261,2.261,0,0,1-.84,1.8,2.78,2.78,0,0,1-.95.5,3.971,3.971,0,0,1-1.21.174,6.46,6.46,0,0,1-1.26-.137,4.786,4.786,0,0,1-1.213-.4l.408-1.475a5.234,5.234,0,0,0,1.014.372,4.029,4.029,0,0,0,.99.132,2.148,2.148,0,0,0,.4-.037,1.115,1.115,0,0,0,.36-.126.718.718,0,0,0,.258-.233.64.64,0,0,0,.1-.36.784.784,0,0,0-.24-.552,5.121,5.121,0,0,0-.815-.636,7.8,7.8,0,0,1-.672-.5,3.38,3.38,0,0,1-.541-.558,2.5,2.5,0,0,1-.354-.642,2.2,2.2,0,0,1-.126-.763,2.526,2.526,0,0,1,.193-1.019,1.909,1.909,0,0,1,.551-.739,2.573,2.573,0,0,1,.865-.45,3.823,3.823,0,0,1,1.126-.155,4.532,4.532,0,0,1,2.329.624l-.4,1.428a4.5,4.5,0,0,0-.876-.384,2.956,2.956,0,0,0-.924-.156,1.6,1.6,0,0,0-.677.126.5.5,0,0,0-.271.509A.654.654,0,0,0,592.32,433.153Z" transform="translate(-426.678 -304.679)" fill="#5c5c5c" opacity="0.999"/>
  </g>
</svg>
