<svg xmlns="http://www.w3.org/2000/svg" width="23.713" height="24.004" viewBox="0 0 23.713 24.004">
  <g id="组_186" data-name="组 186" transform="translate(-116.996 -117.996)">
    <g id="组_181" data-name="组 181" transform="translate(-80 85)">
      <g id="组_163" data-name="组 163" transform="translate(-109 -877)">
        <rect id="矩形_83" data-name="矩形 83" width="22.099" height="24" transform="translate(306 910)" fill="none"/>
      </g>
      <path id="路径_204" data-name="路径 204" d="M220.7,853.886v2.853a11.91,11.91,0,0,0-22.674,5.783h1.139a10.775,10.775,0,0,1,20.541-5.231v0l.545,1.007H221.7v-4.413Zm0,0" transform="translate(-1.003 -816.882)" fill="#ff7f12"/>
      <path id="路径_205" data-name="路径 205" d="M220.418,1197.606a10.775,10.775,0,0,1-20.541,5.232h0l-.431-1.009H197.88v4.413l1,0v-2.854a11.91,11.91,0,0,0,22.673-5.784Zm0,0" transform="translate(-0.884 -1153.283)" fill="#4988fe"/>
      <rect id="矩形_323" data-name="矩形 323" width="23.709" height="24" transform="translate(197 33)" fill="none"/>
    </g>
  </g>
</svg>
