<svg xmlns="http://www.w3.org/2000/svg" xmlns:xlink="http://www.w3.org/1999/xlink" width="32" height="32.001" viewBox="0 0 32 32.001">
  <defs>
    <radialGradient id="radial-gradient" cx="0.5" cy="0.5" r="0.5" gradientUnits="objectBoundingBox">
      <stop offset="0" stop-color="#fff"/>
      <stop offset="0.586" stop-color="#fff" stop-opacity="0.102"/>
      <stop offset="1" stop-color="#4988fe" stop-opacity="0.467"/>
    </radialGradient>
  </defs>
  <g id="组_185" data-name="组 185" transform="translate(-72 -114)">
    <g id="椭圆_38" data-name="椭圆 38" transform="translate(-563.124 -356.074)">
      <circle id="椭圆_47" data-name="椭圆 47" cx="16" cy="16" r="16" transform="translate(635.124 470.075)" fill="url(#radial-gradient)"/>
      <path id="路径_228" data-name="路径 228" d="M651.124,502.074a16,16,0,1,1,16-16A16.019,16.019,0,0,1,651.124,502.074Zm0-30a14,14,0,1,0,14,14A14.015,14.015,0,0,0,651.124,472.074Z" fill="#4988fe"/>
    </g>
    <g id="组_183" data-name="组 183" transform="translate(-563.124 -356.074)">
      <path id="路径_229" data-name="路径 229" d="M652.2,478.791a5.007,5.007,0,0,1,3.34,1.021,3.245,3.245,0,0,1,1.121,2.58,3.147,3.147,0,0,1-2.22,3.22,3.486,3.486,0,0,1,2.12,1.141,3.548,3.548,0,0,1,.7,2.3,3.606,3.606,0,0,1-1.481,3.18,6.416,6.416,0,0,1-3.56.84h-6.562V478.791Zm-4.2,6h3.581a3.543,3.543,0,0,0,2.12-.5,2.018,2.018,0,0,0,.62-1.62,1.749,1.749,0,0,0-.62-1.481,3.554,3.554,0,0,0-2.081-.479h-3.62Zm0,6.362h3.881a4.293,4.293,0,0,0,2.08-.421,1.813,1.813,0,0,0,.96-1.719,2.093,2.093,0,0,0-.7-1.761,3.828,3.828,0,0,0-2.28-.54h-3.941Z" fill="#4988fe"/>
    </g>
  </g>
</svg>
