<svg xmlns="http://www.w3.org/2000/svg" width="16" height="16" viewBox="0 0 16 16">
  <g id="组_192" data-name="组 192" transform="translate(-177 -174)">
    <g id="组_191" data-name="组 191">
      <path id="路径_50" data-name="路径 50" d="M196.982,846A8,8,0,1,0,205,853.982,7.954,7.954,0,0,0,196.982,846Zm0,14.664a6.681,6.681,0,1,1,6.681-6.681,6.678,6.678,0,0,1-6.681,6.681Zm0,0" transform="translate(-12 -672)" fill="#8e8e93"/>
    </g>
    <path id="路径_51" data-name="路径 51" d="M532.692,1025.88v-3.938a.633.633,0,1,0-1.266,0v4.185a.741.741,0,0,0,.176.457l2.954,2.954a.582.582,0,0,0,.457.176.74.74,0,0,0,.457-.176.658.658,0,0,0,0-.914Zm0,0" transform="translate(-347.077 -843.546)" fill="#8e8e93"/>
  </g>
</svg>
