<svg xmlns="http://www.w3.org/2000/svg" xmlns:xlink="http://www.w3.org/1999/xlink" width="32" height="32" viewBox="0 0 32 32">
  <defs>
    <radialGradient id="radial-gradient" cx="0.5" cy="0.5" r="0.5" gradientUnits="objectBoundingBox">
      <stop offset="0" stop-color="#fff"/>
      <stop offset="0.601" stop-color="#fff"/>
      <stop offset="1" stop-color="#ffe3be"/>
    </radialGradient>
  </defs>
  <g id="组_184" data-name="组 184" transform="translate(-26 -114)">
    <circle id="椭圆_46" data-name="椭圆 46" cx="16" cy="16" r="16" transform="translate(26 114)" fill="url(#radial-gradient)"/>
    <path id="路径_226" data-name="路径 226" d="M668.013,462a16,16,0,1,1,16-16A16.018,16.018,0,0,1,668.013,462Zm0-30a14,14,0,1,0,14,14A14.015,14.015,0,0,0,668.013,432Z" transform="translate(-626.013 -316)" fill="#ff7f12"/>
    <g id="组_182" data-name="组 182" transform="translate(-626.013 -316)">
      <path id="路径_227" data-name="路径 227" d="M669.4,438.717,674.855,453h-2.5l-1.3-3.581h-5.982l-1.3,3.581h-2.5l5.461-14.283Zm.959,8.782-2.24-6.262h-.08l-2.261,6.262Z" fill="#ff7f12"/>
    </g>
  </g>
</svg>
