<svg xmlns="http://www.w3.org/2000/svg" xmlns:xlink="http://www.w3.org/1999/xlink" width="68" height="68" viewBox="0 0 68 68">
  <defs>
    <filter id="椭圆_31" x="0" y="0" width="68" height="68" filterUnits="userSpaceOnUse">
      <feOffset input="SourceAlpha"/>
      <feGaussianBlur stdDeviation="3" result="blur"/>
      <feFlood flood-color="#aecdf7"/>
      <feComposite operator="in" in2="blur"/>
      <feComposite in="SourceGraphic"/>
    </filter>
  </defs>
  <g id="对比" transform="translate(-913 -227)">
    <g id="组_302" data-name="组 302" transform="translate(612 -445)">
      <g transform="matrix(1, 0, 0, 1, 301, 672)" filter="url(#椭圆_31)">
        <circle id="椭圆_31-2" data-name="椭圆 31" cx="25" cy="25" r="25" transform="translate(9 9)" fill="#fff"/>
      </g>
    </g>
    <g id="组_305" data-name="组 305" transform="translate(382.56 -122.084)">
      <path id="路径_232" data-name="路径 232" d="M559.6,386h-4.07l-2.09-14.652h3.63l1.078,10.758,4.356-10.758h3.938Z" fill="#4988fe"/>
      <path id="路径_233" data-name="路径 233" d="M575.4,381.732a4.134,4.134,0,0,1-1.541,3.3,5.159,5.159,0,0,1-1.737.913,7.386,7.386,0,0,1-2.222.319,11.71,11.71,0,0,1-2.31-.253,8.837,8.837,0,0,1-2.222-.737l.748-2.706a9.59,9.59,0,0,0,1.859.682,7.42,7.42,0,0,0,1.815.242,4.094,4.094,0,0,0,.736-.066,2.132,2.132,0,0,0,.661-.231,1.343,1.343,0,0,0,.473-.429,1.167,1.167,0,0,0,.176-.66,1.438,1.438,0,0,0-.44-1.012,9.3,9.3,0,0,0-1.5-1.166,14.852,14.852,0,0,1-1.232-.913,6.149,6.149,0,0,1-.99-1.023,4.562,4.562,0,0,1-.65-1.177,4.037,4.037,0,0,1-.23-1.4,4.669,4.669,0,0,1,.352-1.87,3.524,3.524,0,0,1,1.012-1.353,4.655,4.655,0,0,1,1.584-.825,6.994,6.994,0,0,1,2.068-.286,8.319,8.319,0,0,1,4.268,1.144l-.726,2.618a8.45,8.45,0,0,0-1.606-.7,5.463,5.463,0,0,0-1.694-.286,2.938,2.938,0,0,0-1.243.231.927.927,0,0,0-.5.935,1.212,1.212,0,0,0,.364.847,11,11,0,0,0,1.264,1.067q.662.506,1.288,1a7.29,7.29,0,0,1,1.1,1.067,5.32,5.32,0,0,1,.77,1.243A3.627,3.627,0,0,1,575.4,381.732Z" fill="#4988fe"/>
    </g>
    <g id="组_316" data-name="组 316" transform="translate(904.355 260.786)">
      <path id="路径_414" data-name="路径 414" d="M35.214,11.672a8.283,8.283,0,0,0,.519-2.529H33.1V8.134h3.548v.759a8.926,8.926,0,0,1-.769,3.638c.379.5.719.99,1.039,1.49l-.78.779c-.239-.42-.5-.84-.8-1.27a10.4,10.4,0,0,1-2.088,2.349l-.6-.9a7.8,7.8,0,0,0,2.089-2.3c-.54-.72-1.15-1.449-1.829-2.208l.71-.67C34.185,10.422,34.714,11.052,35.214,11.672Zm4.017,1.469-.819.58A15.681,15.681,0,0,0,36.953,11.6l.8-.58A15.936,15.936,0,0,1,39.231,13.141Zm.56-4.068V7.214h1.05V9.073h1v1.009h-1V15.25q0,1.2-1.259,1.2h-1.49l-.23-1.019c.48.04.93.069,1.36.069.38,0,.569-.17.569-.51V10.082H37.023V9.073Z" fill="#4988fe"/>
      <path id="路径_415" data-name="路径 415" d="M43.005,15.36a.729.729,0,0,0,.29-.62V7.374h1.049V9.992H46.8v1.02H44.344v4.057c.82-.189,1.639-.419,2.449-.679l.27.979c-1.16.361-2.409.68-3.738.96Zm5.437-.55c0,.259.121.4.36.4h1.389a.556.556,0,0,0,.38-.19,4.306,4.306,0,0,0,.25-1.689l.99.329a5.329,5.329,0,0,1-.46,2.19,1.293,1.293,0,0,1-.89.359H48.512c-.749,0-1.119-.41-1.119-1.209V7.354h1.049v2.928a13.579,13.579,0,0,0,2.569-1.029l.62.85a20.363,20.363,0,0,1-3.189,1.178Z" fill="#4988fe"/>
    </g>
  </g>
</svg>
