<svg xmlns="http://www.w3.org/2000/svg" xmlns:xlink="http://www.w3.org/1999/xlink" width="18" height="18.984" viewBox="0 0 18 18.984">
  <defs>
    <linearGradient id="linear-gradient" x1="0.782" y1="1.162" x2="0.308" y2="-0.133" gradientUnits="objectBoundingBox">
      <stop offset="0" stop-color="#dd0800"/>
      <stop offset="1" stop-color="#ff9124"/>
    </linearGradient>
  </defs>
  <path id="联合_6" data-name="联合 6" d="M1040.91-1089.015c-2.911,0-2.911-1.654-2.911-3.7v-8.806h1.867v8.785c0,1.148.068,1.919,1.18,1.919h7.974c1.249,0,1.18-.76,1.18-1.845v-8.859h1.8v8.806c0,2.046,0,3.7-2.911,3.7Zm5.09-5.48v-5a1,1,0,0,1,1-1,1,1,0,0,1,1,1v5a1,1,0,0,1-1,1A1,1,0,0,1,1046-1094.5Zm-4,0v-5a1,1,0,0,1,1-1,1,1,0,0,1,1,1v5a1,1,0,0,1-1,1A1,1,0,0,1,1042-1094.5Zm-5-8a1,1,0,0,1-1-1,1,1,0,0,1,1-1h3.817a4.172,4.172,0,0,1,4.373-3.5,4.172,4.172,0,0,1,4.373,3.5H1053a1,1,0,0,1,1,1,1,1,0,0,1-1,1Zm10.437-2a2.187,2.187,0,0,0-2.247-1.66,2.172,2.172,0,0,0-2.236,1.66Z" transform="translate(-1036 1108)" fill="url(#linear-gradient)"/>
</svg>
