<svg xmlns="http://www.w3.org/2000/svg" xmlns:xlink="http://www.w3.org/1999/xlink" width="16" height="16.017" viewBox="0 0 16 16.017">
  <defs>
    <clipPath id="clip-path">
      <rect id="矩形_15" data-name="矩形 15" width="16" height="16.017" fill="#8e8e93"/>
    </clipPath>
  </defs>
  <g id="组_178" data-name="组 178" transform="translate(-152 -808)">
    <g id="组_9" data-name="组 9" transform="translate(152 808)">
      <g id="组_8" data-name="组 8" clip-path="url(#clip-path)">
        <path id="路径_3" data-name="路径 3" d="M165.525,822.165a7.993,7.993,0,1,1,0-11.3,7.992,7.992,0,0,1,0,11.3Zm-.942-10.362a6.661,6.661,0,1,0,0,9.42,6.662,6.662,0,0,0,0-9.42Zm-1.354,7.948-.118.118a.582.582,0,0,1-.824,0l-2.414-2.414-2.355,2.355a.666.666,0,1,1-.942-.943l2.355-2.355-2.414-2.414a.582.582,0,0,1,0-.824l.118-.118a.582.582,0,0,1,.824,0l2.414,2.414,2.355-2.355a.666.666,0,0,1,.942.942l-2.355,2.355,2.414,2.414a.582.582,0,0,1,0,.824Zm0,0" transform="translate(-151.881 -808.509)" fill="#8e8e93"/>
      </g>
    </g>
  </g>
</svg>
