<svg xmlns="http://www.w3.org/2000/svg" width="12.492" height="10.85" viewBox="0 0 12.492 10.85">
  <path id="路径_385" data-name="路径 385" d="M112.217,39.264a2.53,2.53,0,0,1,1.083.225l1.258-1.25a7.776,7.776,0,0,0-2.283-.4A6.715,6.715,0,0,0,106,42.123a6.9,6.9,0,0,0,1.942,2.683l1.658-1.658a2.127,2.127,0,0,1-.225-1.025,2.818,2.818,0,0,1,2.842-2.858m4.967-2.283-10.1,10.109.742.742,1.658-1.658.225-.225a7.587,7.587,0,0,0,2.508.458,6.715,6.715,0,0,0,6.275-4.284,6.172,6.172,0,0,0-2.108-2.85l.225-.225,1.317-1.317Zm-2.392,3.884a3.056,3.056,0,0,1,.283,1.258,2.823,2.823,0,0,1-2.85,2.85,2.482,2.482,0,0,1-1.258-.342l.858-.858a1.1,1.1,0,0,0,.4.058,1.68,1.68,0,0,0,1.708-1.708v-.4l.858-.858m-2.458-.458c-.058,0-.058,0-.058-.058a1.68,1.68,0,0,0-1.708,1.708v.117l1.767-1.767" transform="translate(-106 -36.981)" fill="#4988fe"/>
</svg>
