<svg xmlns="http://www.w3.org/2000/svg" xmlns:xlink="http://www.w3.org/1999/xlink" width="68" height="68" viewBox="0 0 68 68">
  <defs>
    <filter id="椭圆_71" x="0" y="0" width="68" height="68" filterUnits="userSpaceOnUse">
      <feOffset input="SourceAlpha"/>
      <feGaussianBlur stdDeviation="3" result="blur"/>
      <feFlood flood-color="#aecdf7"/>
      <feComposite operator="in" in2="blur"/>
      <feComposite in="SourceGraphic"/>
    </filter>
  </defs>
  <g id="收藏" transform="translate(-821 -24)">
    <g transform="matrix(1, 0, 0, 1, 821, 24)" filter="url(#椭圆_71)">
      <circle id="椭圆_71-2" data-name="椭圆 71" cx="25" cy="25" r="25" transform="translate(9 9)" fill="#fff"/>
    </g>
    <path id="路径_69" data-name="路径 69" d="M162.639,827.574a.863.863,0,0,0-.774.481l-2.857,5.789-6.389.928a.863.863,0,0,0-.478,1.472l4.623,4.506-1.091,6.363a.863.863,0,0,0,1.252.91l5.714-3,5.714,3a.863.863,0,0,0,1.252-.91l-1.091-6.363,4.623-4.506a.863.863,0,0,0-.478-1.472l-6.388-.928-2.857-5.789a.863.863,0,0,0-.774-.481Zm0,0" transform="translate(692.12 -786.574)" fill="#4988fe"/>
    <g id="组_309" data-name="组 309" transform="translate(812.195 56.796)">
      <path id="路径_401" data-name="路径 401" d="M32.805,13.71a.351.351,0,0,0,.26-.319V8.113h1.019v5.228c.38-.12.76-.25,1.13-.39V7.275h1.029v4.086A9.311,9.311,0,0,0,37.813,7.2l1.049.18c-.08.439-.17.859-.27,1.249H41.68v1.03h-.76a8.455,8.455,0,0,1-1.129,3.978A12.037,12.037,0,0,0,41.95,15.7l-.72.85a12.8,12.8,0,0,1-2.079-2.009,8.081,8.081,0,0,1-2.428,1.929l-.48-.779v.719H35.214V13.95c-.68.241-1.38.451-2.109.64Zm4.058-1.518-.62-.77v4.027a6.451,6.451,0,0,0,2.269-1.768,11.952,11.952,0,0,1-1.149-2.15A7.133,7.133,0,0,1,36.863,12.192Zm1.109-1.78a11.423,11.423,0,0,0,1.16,2.319,7.567,7.567,0,0,0,.8-3.068H38.272C38.172,9.923,38.072,10.172,37.972,10.412Z" fill="#4988fe"/>
      <path id="路径_402" data-name="路径 402" d="M45.094,7.764v-.54h1.059v.54H48.4V7.235h1.06v.529h2.209v.9H49.462v.43h.489v.43h.53c-.089-.21-.18-.41-.28-.6l.869-.14c.08.22.17.47.25.74h.42v.87H49.972a18.278,18.278,0,0,0,.179,2.568,10.743,10.743,0,0,0,.411-2.069l.869.19a10.071,10.071,0,0,1-.93,3.438l.09.25c.14.34.25.509.32.509s.159-.379.26-1.138l.749.409c-.2,1.26-.48,1.9-.859,1.9-.28,0-.58-.24-.89-.719a2.693,2.693,0,0,1-.2-.37,4.33,4.33,0,0,1-1.25,1.089l-.409-.65H45.834V10.792h2.928v.81h-.69v.62h.72V14.29h-.72v.69h.69v.309a4.191,4.191,0,0,0,.82-1,7.339,7.339,0,0,1-.2-.819,17.686,17.686,0,0,1-.31-3.078H45.464v2.858A7.382,7.382,0,0,1,44.8,16.5l-.75-.68a5.829,5.829,0,0,0,.48-2.468H44a4.873,4.873,0,0,1-.7,2.718l-.71-.549a3.574,3.574,0,0,0,.61-2.169h-.51v-.86h1.839V11.7h-1.5V9.333h.88v1.509h.619V9.523h4.518v-.29H48.4v-.57H46.153v.56H45.094v-.56H42.885v-.9ZM46.663,11.6v.62h.6V11.6Zm0,1.949h1.35v-.59h-1.35Zm0,1.429h.6v-.69h-.6Z" fill="#4988fe"/>
    </g>
  </g>
</svg>
