<svg xmlns="http://www.w3.org/2000/svg" width="28.494" height="28.878" viewBox="0 0 28.494 28.878">
  <g id="组_147" data-name="组 147" transform="translate(-77.08 -150.334)">
    <g id="组_29" data-name="组 29" transform="translate(82.666 155.957)">
      <path id="路径_19" data-name="路径 19" d="M359.953,944.016a1.242,1.242,0,0,0,1.238,1.238h4.953a1.242,1.242,0,0,0,1.238-1.238v-1.238h-7.429ZM363.667,922a8.664,8.664,0,0,0-4.953,15.774v2.8a1.242,1.242,0,0,0,1.238,1.238h7.429a1.242,1.242,0,0,0,1.238-1.238v-2.8A8.664,8.664,0,0,0,363.667,922Zm3.535,13.744-1.059.737v2.854h-4.953v-2.848l-1.059-.737a6.2,6.2,0,1,1,7.07-.006Zm0,0" transform="translate(-355 -922)" fill="#fff"/>
    </g>
    <path id="路径_21" data-name="路径 21" d="M238.885,803.826a1.142,1.142,0,0,1-1.143-1.143,2.3,2.3,0,0,0-2.568-2.291,1.143,1.143,0,1,1,0-2.285,4.516,4.516,0,0,1,4.854,4.577,1.142,1.142,0,0,1-1.143,1.143Zm-3.125-12.219a1.146,1.146,0,0,1-1.143-1.143v-1.708a1.143,1.143,0,1,1,2.285,0v1.708a1.146,1.146,0,0,1-1.143,1.143Zm-7.453,3.085a1.145,1.145,0,0,1-1.617,0l-1.208-1.208a1.143,1.143,0,1,1,1.617-1.617l1.209,1.209a1.145,1.145,0,0,1,0,1.617Zm-2.8,7.453a1.146,1.146,0,0,1-1.143,1.143h-1.708a1.143,1.143,0,1,1,0-2.285h1.708a1.146,1.146,0,0,1,1.143,1.143Zm17.706-7.453a1.145,1.145,0,0,1,0-1.617l1.208-1.209a1.144,1.144,0,1,1,1.617,1.617l-1.209,1.208a1.145,1.145,0,0,1-1.617,0Zm2.8,7.453A1.146,1.146,0,0,1,247.156,801h1.708a1.143,1.143,0,1,1,0,2.285h-1.708a1.146,1.146,0,0,1-1.143-1.143Zm0,0" transform="translate(-144.433 -637.279)" fill="#fff"/>
  </g>
</svg>
