<svg xmlns="http://www.w3.org/2000/svg" xmlns:xlink="http://www.w3.org/1999/xlink" width="19.073" height="22" viewBox="0 0 19.073 22">
  <defs>
    <linearGradient id="linear-gradient" x1="0.701" y1="1" x2="0.389" gradientUnits="objectBoundingBox">
      <stop offset="0" stop-color="#dd0800"/>
      <stop offset="1" stop-color="#ff9124"/>
    </linearGradient>
    <clipPath id="clip-path">
      <rect id="矩形_416" data-name="矩形 416" width="19.073" height="22" fill="url(#linear-gradient)"/>
    </clipPath>
  </defs>
  <g id="组_268" data-name="组 268" transform="translate(-119 -659)">
    <g id="组_264" data-name="组 264" transform="translate(-14 691.72)">
      <g id="组_259" data-name="组 259" transform="translate(133 -32.72)">
        <g id="组_258" data-name="组 258" clip-path="url(#clip-path)">
          <path id="路径_322" data-name="路径 322" d="M150.514-14.1c4.31-5.735-1.625-13.462-2.935-14.419a3.524,3.524,0,0,1-.71,3.821c-1.752-6.645-6.461-7.977-6.461-7.977.718,3.629-1.066,6.613-3.35,9.413a3.663,3.663,0,0,0-1.385-3.3c.029,2.861-1.805,2.781-2.571,6.99-.957,5.275,5.142,8.437,5.142,8.437-1.462-2.077-1.3-3.353-1.3-3.353,4.786,5.983,10.37,3.071,10.37,3.071.117-.066.234-.133.346-.2a8.042,8.042,0,0,0,2.858-2.484Zm0,0" transform="translate(-132.999 32.674)" fill="url(#linear-gradient)"/>
        </g>
      </g>
    </g>
    <g id="组_267" data-name="组 267" transform="translate(-289.274 375.565)">
      <path id="路径_325" data-name="路径 325" d="M414.874,293.623v-1.188h.949v1.188h1.139v.92h-1.139v1.3c.36-.1.72-.2,1.07-.32v.909c-.36.1-.71.2-1.07.29v1.43c0,.649-.31.98-.919.98h-.95l-.22-.911a6.213,6.213,0,0,0,.84.071c.2,0,.3-.131.3-.371v-.969c-.45.1-.91.2-1.379.28l-.221-.89c.54-.069,1.08-.16,1.6-.27v-1.529h-1.339v-.92Zm.489,6.137a9.111,9.111,0,0,1-1.239,1.98l-.779-.57a7.2,7.2,0,0,0,1.219-1.8Zm2.139,1.73-.949.22a12.182,12.182,0,0,0-.48-1.879l.889-.18A18.844,18.844,0,0,1,417.5,301.49Zm3.488-2.809a4.941,4.941,0,0,1-.629-3.008v-1.08h-1.11a8.665,8.665,0,0,1-.259,1.939,11.305,11.305,0,0,1,1.229,1.07l-.54.81a11.062,11.062,0,0,0-1.019-.951,4.713,4.713,0,0,1-1.38,1.76l-.7-.62a4.055,4.055,0,0,0,1.319-1.749,8.311,8.311,0,0,0-.88-.57l.51-.74c.22.12.43.261.64.4a9.3,9.3,0,0,0,.15-1.35h-1.06v-.93h1.06v-1.228h.929v1.228h2.039v2.01a7.013,7.013,0,0,0,.231,2.229c.059.179.12.279.179.279s.1-.14.151-.409a8.328,8.328,0,0,0,.069-.97l.72.359a4.146,4.146,0,0,1-.32,1.69.513.513,0,0,1-.44.27A1.167,1.167,0,0,1,420.99,298.681Zm-1.2,2.788-.939.221a9.98,9.98,0,0,0-.71-1.989l.889-.19A14.553,14.553,0,0,1,419.791,301.469Zm2.529-.319-.79.56a14.727,14.727,0,0,0-1.349-2.009l.769-.49A15.544,15.544,0,0,1,422.32,301.15Z" fill="#fff"/>
    </g>
  </g>
</svg>
