<svg xmlns="http://www.w3.org/2000/svg" width="40" height="40" viewBox="0 0 40 40">
  <g id="组_31" data-name="组 31" transform="translate(-204 -860)">
    <path id="路径_29" data-name="路径 29" d="M224,860a20,20,0,1,0,20,20,19.985,19.985,0,0,0-20-20Zm0,37.143A17.143,17.143,0,1,1,241.143,880,17.157,17.157,0,0,1,224,897.143Zm8.829-25.343-10.6,10.429-4.4-4.286a1.449,1.449,0,0,0-2.057,0,1.414,1.414,0,0,0,0,2.029l5.428,5.314a1.449,1.449,0,0,0,2.057,0l11.628-11.429a1.455,1.455,0,0,0-2.057-2.057Zm0,0" transform="translate(0 0)" fill="#4988fe"/>
  </g>
</svg>
