<svg xmlns="http://www.w3.org/2000/svg" width="24" height="24" viewBox="0 0 24 24">
  <g id="组_161" data-name="组 161" transform="translate(-198 -854)">
    <path id="路径_1" data-name="路径 1" d="M210,856.25a9.75,9.75,0,1,1-9.75,9.75,9.731,9.731,0,0,1,9.75-9.75m0-2.25a12,12,0,1,0,12,12,12.035,12.035,0,0,0-12-12Zm0,0" transform="translate(0 0)" fill="#4988fe"/>
    <path id="路径_2" data-name="路径 2" d="M359.58,1038.317a1.516,1.516,0,1,1-1.487,1.516,1.506,1.506,0,0,1,1.487-1.516m0-2.274a3.791,3.791,0,1,0,3.718,3.79,3.718,3.718,0,0,0-3.718-3.79Zm0,8.338a7.306,7.306,0,0,0-6.842,4.7,8.8,8.8,0,0,0,1.859,1.44,5.144,5.144,0,0,1,9.966,0,11.2,11.2,0,0,0,1.859-1.44,7.306,7.306,0,0,0-6.842-4.7Zm0,0" transform="translate(-149.58 -176.137)" fill="#4988fe"/>
  </g>
</svg>
