<svg xmlns="http://www.w3.org/2000/svg" xmlns:xlink="http://www.w3.org/1999/xlink" width="19.658" height="22" viewBox="0 0 19.658 22">
  <defs>
    <linearGradient id="linear-gradient" x1="0.5" x2="0.93" y2="1.119" gradientUnits="objectBoundingBox">
      <stop offset="0" stop-color="#ffe51c"/>
      <stop offset="0.207" stop-color="#ffd800"/>
      <stop offset="1" stop-color="#d88500"/>
    </linearGradient>
    <clipPath id="clip-path">
      <path id="路径_212" data-name="路径 212" d="M542.689,354.159v-8.741a1.26,1.26,0,0,0-.63-1.091l-7.569-4.37a1.259,1.259,0,0,0-1.26,0l-7.569,4.37a1.259,1.259,0,0,0-.63,1.091v8.741a1.259,1.259,0,0,0,.63,1.091l7.569,4.37a1.26,1.26,0,0,0,1.26,0l7.569-4.37A1.259,1.259,0,0,0,542.689,354.159Z" transform="translate(-525.031 -339.789)" fill="url(#linear-gradient)"/>
    </clipPath>
  </defs>
  <g id="组_203" data-name="组 203" transform="translate(-37 -660)">
    <g id="路径_209" data-name="路径 209" transform="translate(-487.031 321.211)" fill="url(#linear-gradient)">
      <path d="M 533.8599853515625 360.2890625 C 533.5516357421875 360.2890625 533.2474365234375 360.2075500488281 532.9802856445312 360.0533752441406 L 525.4108276367188 355.6830139160156 C 524.8681640625 355.3697814941406 524.531005859375 354.7859802246094 524.531005859375 354.1594848632812 L 524.531005859375 345.4188537597656 C 524.531005859375 344.7921752929688 524.8681640625 344.2082824707031 525.410888671875 343.89501953125 L 532.980224609375 339.5247497558594 C 533.2473754882812 339.3705139160156 533.5516357421875 339.2890014648438 533.8599853515625 339.2890014648438 C 534.1683959960938 339.2890014648438 534.4725952148438 339.3705444335938 534.73974609375 339.5247497558594 L 542.3092041015625 343.8950500488281 C 542.8518676757812 344.2083129882812 543.18896484375 344.7922058105469 543.18896484375 345.4188537597656 L 543.18896484375 354.1594848632812 C 543.18896484375 354.7859497070312 542.8518676757812 355.3697509765625 542.3092041015625 355.6830139160156 L 534.73974609375 360.0533447265625 C 534.4725952148438 360.2075500488281 534.1683959960938 360.2890625 533.8599853515625 360.2890625 Z" stroke="none"/>
      <path d="M 533.8599853515625 359.7890625 C 534.0774536132812 359.7890625 534.2948608398438 359.7328186035156 534.48974609375 359.6203308105469 L 542.0592041015625 355.25 C 542.4489135742188 355.0250244140625 542.68896484375 354.6094665527344 542.68896484375 354.1594848632812 L 542.68896484375 345.4188537597656 C 542.68896484375 344.9689025878906 542.4489135742188 344.5530395507812 542.0592041015625 344.3280639648438 L 534.48974609375 339.957763671875 C 534.2948608398438 339.8452758789062 534.0774536132812 339.7890014648438 533.8599853515625 339.7890014648438 C 533.642578125 339.7890014648438 533.4251098632812 339.8452758789062 533.230224609375 339.957763671875 L 525.6608276367188 344.3280639648438 C 525.2710571289062 344.5530395507812 525.031005859375 344.9689025878906 525.031005859375 345.4188537597656 L 525.031005859375 354.1594848632812 C 525.031005859375 354.6094665527344 525.2710571289062 355.0250244140625 525.6608276367188 355.25 L 533.230224609375 359.6203308105469 C 533.4251098632812 359.7328186035156 533.642578125 359.7890625 533.8599853515625 359.7890625 M 533.8599853515625 360.7890625 C 533.4639892578125 360.7890625 533.0733642578125 360.6844177246094 532.7303466796875 360.4864196777344 L 525.1608276367188 356.1160278320312 C 524.4639892578125 355.7138061523438 524.031005859375 354.9640502929688 524.031005859375 354.1594848632812 L 524.031005859375 345.4188537597656 C 524.031005859375 344.6141052246094 524.4639892578125 343.8642578125 525.160888671875 343.4619750976562 L 532.730224609375 339.0917358398438 C 533.0733642578125 338.8936767578125 533.4639892578125 338.7890014648438 533.8599853515625 338.7890014648438 C 534.256103515625 338.7890014648438 534.646728515625 338.8936767578125 534.98974609375 339.0917358398438 L 542.5592041015625 343.4620361328125 C 543.2560424804688 343.8643188476562 543.68896484375 344.6141357421875 543.68896484375 345.4188537597656 L 543.68896484375 354.1594848632812 C 543.68896484375 354.9640197753906 543.2560424804688 355.7137451171875 542.5592041015625 356.1160278320312 L 534.98974609375 360.4863586425781 C 534.646728515625 360.6843872070312 534.2560424804688 360.7890625 533.8599853515625 360.7890625 Z" stroke="none" fill="#7c6000"/>
    </g>
    <g id="蒙版组_26" data-name="蒙版组 26" transform="translate(38 661)" clip-path="url(#clip-path)">
      <g id="组_171" data-name="组 171" transform="translate(0.827 -3.996)">
        <path id="路径_210" data-name="路径 210" d="M4749.961,2946.654l17.8-15.731-11.194-2.8C4756.518,2928.164,4749.961,2946.654,4749.961,2946.654Z" transform="translate(-4749.961 -2928.125)" fill="#fff" opacity="0.21"/>
        <path id="路径_211" data-name="路径 211" d="M7,0,0,20.188C-.043,20.217,15.052,0,15.052,0Z" transform="translate(10.001 3.996) rotate(7)" fill="#f4be2c" opacity="0.579"/>
      </g>
    </g>
    <text id="VIP" transform="translate(39.5 674.5)" fill="#ad611f" stroke="#7c6000" stroke-width="0.5" font-size="9" font-family="AlibabaPuHuiTiB, Alibaba PuHuiTi"><tspan x="0" y="0">VIP</tspan></text>
    <text id="VIP-2" data-name="VIP" transform="translate(39.5 674.5)" fill="#fff" font-size="9" font-family="AlibabaPuHuiTiB, Alibaba PuHuiTi"><tspan x="0" y="0">VIP</tspan></text>
  </g>
</svg>
