<svg xmlns="http://www.w3.org/2000/svg" xmlns:xlink="http://www.w3.org/1999/xlink" width="75" height="75" viewBox="0 0 75 75">
  <defs>
    <clipPath id="clip-path">
      <rect id="矩形_364" data-name="矩形 364" width="25.695" height="28.58" fill="#4988fe"/>
    </clipPath>
    <clipPath id="clip-path-2">
      <rect id="矩形_365" data-name="矩形 365" width="14.828" height="12.719" fill="#fff"/>
    </clipPath>
  </defs>
  <g id="组_239" data-name="组 239" transform="translate(-222 -406)">
    <g id="椭圆_53" data-name="椭圆 53" transform="translate(222 406)" fill="none" stroke="#4988fe" stroke-width="4">
      <circle cx="37.5" cy="37.5" r="37.5" stroke="none"/>
      <circle cx="37.5" cy="37.5" r="35.5" fill="none"/>
    </g>
    <g id="组_238" data-name="组 238" transform="translate(-1)">
      <path id="路径_288" data-name="路径 288" d="M334.719,74.139c-3.474,2.153-6,5.413-8.652,8.518l-3.6-2.8-1.588,1.268,7.759,6.683c2.073-4.456,3.45-8.875,7.056-12.218Zm.551.485" transform="translate(-61.393 368.108)" fill="#4988fe"/>
      <g id="组_234" data-name="组 234" transform="translate(247 428.493)">
        <g id="组_233" data-name="组 233" transform="translate(0 0)">
          <g id="组_232" data-name="组 232" transform="translate(0 0)" clip-path="url(#clip-path)">
            <path id="路径_287" data-name="路径 287" d="M339.555-.755c0,5.07-25.675,5.07-25.675,0a7.2,7.2,0,0,1,1.552-4.379C317.6-8,321.845-9.941,326.717-9.941c4.825,0,9.026,1.9,11.219,4.717a7.233,7.233,0,0,1,1.619,4.469Zm-12.837-10.6a7.1,7.1,0,0,1-7.132-7.065,7.1,7.1,0,0,1,7.132-7.062,7.1,7.1,0,0,1,7.132,7.065,7.1,7.1,0,0,1-7.132,7.062Zm0,0" transform="translate(-313.884 25.498)" fill="#4988fe"/>
          </g>
        </g>
      </g>
      <g id="组_237" data-name="组 237" transform="translate(258.68 441.462)">
        <g id="组_236" data-name="组 236" transform="translate(0 0)">
          <g id="组_235" data-name="组 235" transform="translate(0)" clip-path="url(#clip-path-2)">
            <path id="路径_288-2" data-name="路径 288" d="M335.315,74.72a39.646,39.646,0,0,0-9.248,7.937l-3.6-2.8-1.588,1.268L327.1,87.4a37.924,37.924,0,0,1,8.6-11.811Zm0,0" transform="translate(-320.882 -74.705)" fill="#fff"/>
          </g>
        </g>
      </g>
    </g>
  </g>
</svg>
