<svg xmlns="http://www.w3.org/2000/svg" xmlns:xlink="http://www.w3.org/1999/xlink" width="138.6" height="38" viewBox="0 0 138.6 38">
  <defs>
    <clipPath id="clip-path">
      <rect width="138.6" height="38" fill="none"/>
    </clipPath>
  </defs>
  <g id="选择图片" transform="translate(-118 -401)">
    <g id="组件_10" data-name="组件 10" transform="translate(118 401)" clip-path="url(#clip-path)">
      <rect id="矩形_2" data-name="矩形 2" width="138.6" height="38" rx="19" fill="#ff9124"/>
    </g>
    <g id="组_240" data-name="组 240" transform="translate(49 -5)">
      <g id="椭圆_52" data-name="椭圆 52" transform="translate(69 406)" fill="#fff" stroke="#ff9124" stroke-width="4">
        <circle cx="19" cy="19" r="19" stroke="none"/>
        <circle cx="19" cy="19" r="17" fill="none"/>
      </g>
      <g id="组_231" data-name="组 231" transform="translate(80.268 418.462)">
        <path id="路径_285" data-name="路径 285" d="M516.079,219.692a1.973,1.973,0,1,0,1.973-1.973,1.973,1.973,0,0,0-1.973,1.973Zm0,0" transform="translate(-514.597 -217.719)" fill="#ff9124"/>
        <path id="路径_286" data-name="路径 286" d="M477.681,327.832h15.81s-.494-7.658-3.458-7.905-3.656,5.435-4.941,5.435-2.223-3.409-3.953-3.458-3.458,5.929-3.458,5.929Zm0,0" transform="translate(-477.681 -315.974)" fill="#ff9124"/>
      </g>
    </g>
    <g id="组_319" data-name="组 319" transform="translate(-2283.028 -917.25)">
      <path id="路径_419" data-name="路径 419" d="M2457.758,1343.817a12.1,12.1,0,0,1-2.56-.273,3.592,3.592,0,0,1-1.681-1.1c-.223-.273-.416-.4-.593-.4-.32,0-.863.721-1.664,2.161l-1.232-1.152a7.055,7.055,0,0,1,2.144-2.449v-4.386h-2.113v-1.536h3.666v6.082l.176.176a4.463,4.463,0,0,0,1.105.944,5.333,5.333,0,0,0,2.129.4c.928.016,2,.033,3.248.033.8,0,1.6-.017,2.434-.017.816-.031,1.44-.063,1.889-.1l-.416,1.649h-3.666C2459.744,1343.848,2458.784,1343.832,2457.758,1343.817Zm-3.632-11.862-1.168,1.153a16.49,16.49,0,0,0-2.594-2.609l1.137-1.073A22.366,22.366,0,0,1,2454.126,1331.955Zm6.514-2.7v1.857h3.025v1.6h-3.025v1.873h3.57v1.6h-2.545v3.761c0,.241.144.369.448.369h.272a.525.525,0,0,0,.368-.16q.192-.144.24-1.729l1.457.5a5.791,5.791,0,0,1-.529,2.465,1.626,1.626,0,0,1-1.184.352H2461.6a1.505,1.505,0,0,1-1.12-.384,1.527,1.527,0,0,1-.384-1.056v-4.114h-1.232a10.242,10.242,0,0,1-.5,2.657,5.5,5.5,0,0,1-2.882,3.01l-1.072-1.313a4.735,4.735,0,0,0,2.432-2.241,7.4,7.4,0,0,0,.433-2.113h-2.369v-1.6h4.1v-1.873h-2.192a15.034,15.034,0,0,1-.9,1.505l-1.442-.912a11.213,11.213,0,0,0,1.825-3.794l1.6.337c-.128.448-.272.864-.4,1.264h1.5v-1.857Z" fill="#fff"/>
      <path id="路径_420" data-name="路径 420" d="M2466.492,1343.96l-.368-1.616a8.028,8.028,0,0,0,1.2.1.478.478,0,0,0,.527-.544v-3.186q-.84.288-1.68.528l-.417-1.68a19.563,19.563,0,0,0,2.1-.544V1333.8h-1.776v-1.616h1.776v-2.834h1.7v2.834h1.618v1.616h-1.618v2.609c.544-.224,1.088-.464,1.633-.736v1.7c-.545.256-1.089.481-1.633.7v4.258a1.454,1.454,0,0,1-1.648,1.633Zm13.046-14.166v1.409a5.923,5.923,0,0,1-2.049,2.881,12.206,12.206,0,0,0,3.3.752l-.609,1.489a11.288,11.288,0,0,1-4.256-1.249,17.684,17.684,0,0,1-3.939,1.362l-.8-1.41a19.108,19.108,0,0,0,3.281-.992,6.9,6.9,0,0,1-1.777-2.737h-.928v-1.505Zm-4.418,7.443v-1.152h1.6v1.152h2.961v1.5h-2.961v1.361h3.778v1.552h-3.778v2.242h-1.6v-2.242h-3.874V1340.1h3.874v-1.361h-3.041v-1.5Zm.8-3.985a5.734,5.734,0,0,0,1.888-1.953H2474.3A5.106,5.106,0,0,0,2475.921,1333.252Z" fill="#fff"/>
      <path id="路径_421" data-name="路径 421" d="M2496.034,1344.1H2494.4v-.529h-10.244v.529h-1.633v-14.262h13.51Zm-1.633-2v-10.788h-10.244V1342.1Zm-5.426-10.437c-.1.225-.193.448-.3.656h4.082v1.1a5.883,5.883,0,0,1-1.793,2.016,18.822,18.822,0,0,0,3.281,1.025l-.864,1.249a17.391,17.391,0,0,1-3.794-1.441,18.642,18.642,0,0,1-4.434,1.489l-.721-1.328a18.588,18.588,0,0,0,3.811-.977,9.56,9.56,0,0,1-1.217-1.009,10.593,10.593,0,0,1-1.425,1.057l-.913-1.217a6.16,6.16,0,0,0,2.8-2.817Zm3.633,9-.544,1.361a39.187,39.187,0,0,0-6.163-1.681l.656-1.233A38.953,38.953,0,0,1,2492.608,1340.663Zm-.9-2.386-.768,1.185a17.767,17.767,0,0,0-3.522-1.408l.737-1.089A22.637,22.637,0,0,1,2491.712,1338.277Zm-.624-4.769H2487.9c-.016.016-.032.032-.032.048a10.262,10.262,0,0,0,1.745,1.232A5.87,5.87,0,0,0,2491.088,1333.508Z" fill="#fff"/>
      <path id="路径_422" data-name="路径 422" d="M2502.494,1335.685c0,.512-.032.992-.064,1.457h7.346v7.01h-1.68v-5.41h-5.859a9.626,9.626,0,0,1-2.528,5.378l-1.3-1.136q2.353-2.281,2.4-7.3v-5.922h1.681v3.521h4.177V1329.3h1.649v3.986h3.281v1.6h-9.107Z" fill="#fff"/>
    </g>
  </g>
</svg>
