<svg xmlns="http://www.w3.org/2000/svg" width="42.619" height="127.5" viewBox="0 0 42.619 127.5">
  <g id="组_200" data-name="组 200" transform="translate(-180 -279.25)">
    <g id="组_199" data-name="组 199" transform="translate(-373.44 -58.169)">
      <path id="路径_232" data-name="路径 232" d="M565.037,398.932h-7.662l-3.935-27.584h6.834L562.3,391.6l8.2-20.253h7.414Z" transform="translate(0 0.233)" fill="#4988fe"/>
      <path id="路径_233" data-name="路径 233" d="M584.25,391.13a7.782,7.782,0,0,1-2.9,6.213,9.712,9.712,0,0,1-3.27,1.719,13.905,13.905,0,0,1-4.183.6,22.045,22.045,0,0,1-4.349-.476,16.638,16.638,0,0,1-4.183-1.387l1.408-5.094a18.055,18.055,0,0,0,3.5,1.284,13.971,13.971,0,0,0,3.417.456,7.7,7.7,0,0,0,1.385-.124,4.015,4.015,0,0,0,1.244-.435,2.528,2.528,0,0,0,.891-.808,2.2,2.2,0,0,0,.331-1.242,2.706,2.706,0,0,0-.828-1.905,17.519,17.519,0,0,0-2.817-2.2,27.949,27.949,0,0,1-2.319-1.719,11.571,11.571,0,0,1-1.864-1.926,8.59,8.59,0,0,1-1.224-2.216,7.6,7.6,0,0,1-.433-2.63,8.788,8.788,0,0,1,.663-3.52,6.636,6.636,0,0,1,1.905-2.547,8.764,8.764,0,0,1,2.982-1.553,13.167,13.167,0,0,1,3.893-.538,15.663,15.663,0,0,1,8.035,2.154l-1.367,4.929a15.912,15.912,0,0,0-3.023-1.325,10.285,10.285,0,0,0-3.189-.538,5.531,5.531,0,0,0-2.34.435,1.746,1.746,0,0,0-.934,1.76,2.282,2.282,0,0,0,.685,1.595,20.706,20.706,0,0,0,2.38,2.009q1.245.952,2.425,1.885a13.723,13.723,0,0,1,2.071,2.009,10.017,10.017,0,0,1,1.45,2.34A6.829,6.829,0,0,1,584.25,391.13Z" transform="translate(10.524 0)" fill="#4988fe"/>
    </g>
    <line id="直线_87" data-name="直线 87" y2="29" transform="translate(201.5 279.5)" fill="none" stroke="#c4c4c4" stroke-linecap="round" stroke-width="0.5" stroke-dasharray="2 3"/>
    <line id="直线_88" data-name="直线 88" y2="58" transform="translate(201.5 348.5)" fill="none" stroke="#c4c4c4" stroke-linecap="round" stroke-width="0.5" stroke-dasharray="2 3"/>
    <line id="直线_89" data-name="直线 89" x2="10" transform="translate(196.5 306.5)" fill="none" stroke="#c4c4c4" stroke-linecap="round" stroke-width="0.5"/>
    <line id="直线_90" data-name="直线 90" x2="10" transform="translate(196.5 348.5)" fill="none" stroke="#c4c4c4" stroke-linecap="round" stroke-width="0.5"/>
  </g>
</svg>
