<svg xmlns="http://www.w3.org/2000/svg" width="15.111" height="14.431" viewBox="0 0 15.111 14.431">
  <g id="组_248" data-name="组 248" transform="translate(-28.503 -408.962)">
    <path id="路径_308" data-name="路径 308" d="M159.436,827.574a.606.606,0,0,0-.544.338l-2.006,4.065-4.486.652a.606.606,0,0,0-.336,1.034l3.247,3.164-.766,4.469a.606.606,0,0,0,.88.639l4.013-2.109,4.013,2.109a.606.606,0,0,0,.879-.639l-.766-4.469,3.246-3.164a.606.606,0,0,0-.336-1.034l-4.486-.652-2.007-4.065a.606.606,0,0,0-.543-.338Zm0,0" transform="translate(-123.377 -418.612)" fill="#dedede"/>
    <path id="减去_14" data-name="减去 14" d="M-1233.739,1159.393a.6.6,0,0,1-.356-.116.6.6,0,0,1-.241-.593l.766-4.469-3.246-3.164a.61.61,0,0,1-.153-.622.6.6,0,0,1,.489-.412l4.486-.652,2.007-4.065a.61.61,0,0,1,.484-.335v12.279l-3.954,2.079A.609.609,0,0,1-1233.739,1159.393Z" transform="translate(1265.503 -736)" fill="#ff9124"/>
  </g>
</svg>
