<svg xmlns="http://www.w3.org/2000/svg" width="16" height="16" viewBox="0 0 16 16">
  <path id="减去_9" data-name="减去 9" d="M-5217-2787a8.009,8.009,0,0,1-8-8,8.009,8.009,0,0,1,8-8,8.009,8.009,0,0,1,8,8A8.009,8.009,0,0,1-5217-2787Zm4.2-8.8a1,1,0,0,0-1,1,1,1,0,0,0,1,1,1,1,0,0,0,1-1A1,1,0,0,0-5212.8-2795.8Zm-4,0a1,1,0,0,0-1,1,1,1,0,0,0,1,1,1,1,0,0,0,1-1A1,1,0,0,0-5216.8-2795.8Zm-4,0a1,1,0,0,0-1,1,1,1,0,0,0,1,1,1,1,0,0,0,1-1A1,1,0,0,0-5220.8-2795.8Z" transform="translate(5225.001 2803)" fill="#fff"/>
</svg>
