<svg xmlns="http://www.w3.org/2000/svg" width="32" height="32" viewBox="0 0 32 32">
  <g id="组_19" data-name="组 19" transform="translate(-153 -809)">
    <path id="路径_11" data-name="路径 11" d="M408.29,1090.781a.933.933,0,1,0,.931.934.932.932,0,0,0-.931-.934Zm7.194,4.966a.778.778,0,1,0,.778.778.778.778,0,0,0-.778-.778Zm-2.4-3.1a.931.931,0,1,0-.931-.931.932.932,0,0,0,.931.931Zm6.178,3.094a.778.778,0,1,0,.778.778.778.778,0,0,0-.778-.778Zm0,0" transform="translate(-244.415 -270.765)" fill="#00c800"/>
    <path id="路径_12" data-name="路径 12" d="M169,809a16,16,0,1,0,16,16,16,16,0,0,0-16-16Zm-2.822,19.844a11.821,11.821,0,0,1-2.4-.344l-2.4,1.2.684-2.062a5.62,5.62,0,0,1-2.744-4.631c0-3.262,3.088-5.834,6.859-5.834,3.372,0,6.328,2.053,6.922,4.816a5.8,5.8,0,0,0-.659-.041,5.619,5.619,0,0,0-5.831,5.428,5.094,5.094,0,0,0,.212,1.438c-.212.019-.428.028-.644.028Zm10.119,2.4.516,1.713-1.881-1.028a8.6,8.6,0,0,1-2.059.344c-3.263,0-5.834-2.231-5.834-4.978s2.569-4.978,5.834-4.978c3.081,0,5.825,2.234,5.825,4.978a5.194,5.194,0,0,1-2.4,3.95Zm0,0" transform="translate(0 0)" fill="#00c800"/>
  </g>
</svg>
